<?xml version="1.0" standalone="no"?>
<!DOCTYPE svg PUBLIC "-//W3C//DTD SVG 20010904//EN"
 "http://www.w3.org/TR/2001/REC-SVG-20010904/DTD/svg10.dtd">
<svg version="1.0" xmlns="http://www.w3.org/2000/svg"
 width="415.000000pt" height="415.000000pt" viewBox="0 0 415.000000 415.000000"
 preserveAspectRatio="xMidYMid meet">
<metadata>
Created by potrace 1.11, written by Peter Selinger 2001-2013
</metadata>
<g transform="translate(0.000000,415.000000) scale(0.100000,-0.100000)"
fill="#000000" stroke="none">
<path d="M2316 3488 c-103 -14 -178 -37 -271 -82 -106 -53 -191 -119 -258
-201 -64 -79 -96 -148 -162 -340 l-54 -160 -174 -180 c-414 -427 -468 -494
-522 -648 -15 -42 -50 -112 -77 -154 -70 -110 -189 -358 -237 -493 -64 -181
-127 -413 -207 -760 l-6 -25 32 30 c50 47 142 163 199 249 28 43 51 75 51 70
0 -5 -9 -58 -19 -119 -10 -60 -22 -144 -26 -185 -3 -41 -8 -86 -10 -100 -2
-14 -7 -74 -10 -135 -4 -60 -8 -129 -10 -152 l-3 -43 310 0 310 0 -7 48 c-3
26 -8 54 -10 62 -2 8 -7 41 -10 74 l-6 59 43 -8 c24 -4 86 -11 138 -15 141
-13 164 -24 316 -152 l81 -68 221 0 220 0 -33 91 c-38 103 -69 153 -184 294
-124 152 -152 225 -116 294 21 41 64 74 163 126 173 90 304 208 436 395 126
177 201 357 222 530 4 29 7 208 8 399 1 300 3 355 19 411 24 88 81 199 125
248 59 63 90 74 242 87 164 13 207 17 230 20 14 2 61 6 105 10 44 3 100 8 125
10 25 3 81 7 125 11 44 3 96 7 115 9 19 1 49 3 67 4 25 1 31 5 26 16 -9 26
-166 98 -243 111 -14 3 -33 7 -42 10 -28 8 -254 49 -323 58 -104 14 -128 18
-182 32 -51 13 -72 26 -73 45 -1 27 -137 116 -245 159 -136 55 -283 76 -409
58z m-652 -2758 c17 -14 186 -291 186 -305 0 -2 -51 13 -112 34 -105 35 -115
41 -146 82 -58 76 -91 109 -111 109 -23 0 -79 45 -69 55 11 11 179 43 210 40
15 -1 34 -8 42 -15z"/>
</g>
</svg>
